<svg width="400" height="416" viewBox="0 0 400 416" fill="none" xmlns="http://www.w3.org/2000/svg">
<path d="M391.27 255.145C383.828 247.718 372.637 245.223 359.799 247.038C358.606 247.208 357.527 246.414 357.413 245.223C350.142 183.762 282.484 135.568 200 135.568C117.516 135.568 49.8584 183.762 42.5871 245.223C42.4735 246.414 41.3941 247.208 40.2012 247.038C27.3627 245.223 16.1717 247.718 8.72994 255.145C-9.44838 273.289 1.68584 313.772 33.5547 345.58C50.3697 362.363 69.5137 373.249 86.5559 377.218C89.3963 377.898 91.9526 379.486 93.8272 381.697C110.642 401.825 151.827 416 200 416C248.173 416 289.358 401.769 306.173 381.697C308.047 379.486 310.604 377.898 313.444 377.218C330.486 373.249 349.687 362.306 366.445 345.58C398.314 313.772 409.448 273.289 391.27 255.145Z" fill="#414141"/>
<path d="M273.736 224.017C249.024 216.363 225.563 226.342 209.146 245.846C207.271 248.058 204.601 249.418 201.704 249.418H198.239C195.342 249.418 192.672 248.058 190.797 245.846C174.38 226.342 150.918 216.363 126.207 224.017C92.634 234.45 79.1707 260.361 83.2608 286.103C85.1355 297.896 92.2932 313.488 105.132 327.606C109.563 332.482 111.721 339.399 109.79 345.693C109.335 347.167 109.108 348.698 109.108 350.229C109.108 370.867 149.782 387.593 200 387.593C250.217 387.593 290.891 370.867 290.891 350.229C290.891 348.698 290.664 347.167 290.21 345.693C288.278 339.399 290.437 332.482 294.868 327.606C307.65 313.545 314.864 297.953 316.739 286.103C320.772 260.361 307.366 234.393 273.792 224.017H273.736Z" fill="#FFE7BF"/>
<path d="M147.68 300.844C158.504 300.844 167.279 292.086 167.279 281.283C167.279 270.48 158.504 261.722 147.68 261.722C136.856 261.722 128.082 270.48 128.082 281.283C128.082 292.086 136.856 300.844 147.68 300.844Z" fill="#343434"/>
<path d="M252.319 300.844C263.143 300.844 271.918 292.086 271.918 281.283C271.918 270.48 263.143 261.722 252.319 261.722C241.495 261.722 232.721 270.48 232.721 281.283C232.721 292.086 241.495 300.844 252.319 300.844Z" fill="#343434"/>
<path d="M206.419 358.28H196.307C196.023 358.28 171.142 357.599 154.384 350.399C149.044 348.131 147.68 341.213 151.543 336.961C153.986 334.239 157.849 333.502 161.257 334.92C171.596 339.286 190.57 341.27 196.307 341.27H206.419C212.157 341.27 231.13 339.286 241.469 334.92C244.821 333.502 248.684 334.239 251.183 336.961C255.046 341.213 253.683 348.131 248.343 350.399C231.585 357.599 206.703 358.28 206.419 358.28Z" fill="#FF928B"/>
<path d="M313.273 40.1995C305.377 25.231 291.857 17.7467 273.452 11.5099C256.75 5.83998 244.025 1.53087 216.588 0.340193C211.589 0.113398 206.135 0 200 0C193.865 0 188.411 0.113398 183.412 0.340193C156.031 1.53087 143.306 5.83998 126.548 11.5099C108.142 17.7467 94.6223 25.231 86.7261 40.1995C80.7046 51.5392 81.159 69.7962 83.5449 79.2082C85.874 88.6203 91.5547 108.805 103.484 128.536C106.041 127.516 108.711 126.552 111.38 125.531C136.148 116.629 165.347 114.191 200 114.191C234.652 114.191 263.908 116.686 288.619 125.531C291.346 126.495 293.959 127.516 296.515 128.536C308.445 108.862 314.069 88.6203 316.455 79.2082C318.784 69.7962 319.238 51.5392 313.273 40.1995Z" fill="#49C3FD"/>
<path d="M296.515 128.537C293.959 127.516 291.289 126.552 288.619 125.532C263.851 116.63 234.652 114.192 200 114.192C165.347 114.192 136.092 116.687 111.38 125.532C108.654 126.496 106.041 127.516 103.484 128.537C82.636 136.758 67.298 146.17 66.8436 157.17C66.5027 165.051 74.4558 173.953 81.9543 179.963C87.351 184.329 95.02 184.442 100.701 180.36C108.881 174.52 122.401 166.468 137.625 164.03C162.393 160.061 200.057 160.572 200.057 160.572C200.057 160.572 237.72 160.061 262.488 164.03C277.712 166.468 291.289 174.52 299.413 180.36C305.093 184.385 312.762 184.329 318.159 179.963C325.601 173.896 333.554 165.051 333.27 157.17C332.815 146.17 317.477 136.758 296.629 128.537H296.515Z" fill="#108DC9"/>
<path d="M216.645 31.0711C215.679 26.0249 212.214 20.9787 200 20.9787C187.786 20.9787 184.321 26.0249 183.355 31.0711C182.39 36.1173 189.093 62.142 190.456 65.3171C191.763 68.4923 194.433 70.3633 200.057 70.3633C205.681 70.3633 208.294 68.4923 209.657 65.3171C210.964 62.142 217.724 36.1173 216.758 31.0711H216.645Z" fill="#92FF1F"/>
<path d="M200 95.1976C205.082 95.1976 209.203 91.4153 209.203 86.7495C209.203 82.0837 205.082 78.3014 200 78.3014C194.917 78.3014 190.797 82.0837 190.797 86.7495C190.797 91.4153 194.917 95.1976 200 95.1976Z" fill="#92FF1F"/>
</svg>
