<?xml version="1.0" encoding="utf-8"?>
<!-- Generator: Adobe Illustrator 25.4.1, SVG Export Plug-In . SVG Version: 6.00 Build 0)  -->
<svg version="1.1" xmlns="http://www.w3.org/2000/svg" xmlns:xlink="http://www.w3.org/1999/xlink" x="0px" y="0px"
	 viewBox="0 0 370 137.22" style="enable-background:new 0 0 370 137.22;" xml:space="preserve">
<style type="text/css">
	.st0{fill:#FFFFFF;}
	.st1{fill:#E5E3E6;}
	.st2{fill:#FF886E;}
	.st3{fill:#414141;}
	.st4{fill:#49C3FD;}
	.st5{fill:#92FF1F;}
	.st6{clip-path:url(#SVGID_00000043426665832053332530000002012014752094602415_);fill:#92FF1F;}
	.st7{fill:none;stroke:#1D1D1B;stroke-linecap:round;stroke-linejoin:round;stroke-miterlimit:10;}
	.st8{fill:#ED7457;}
	.st9{clip-path:url(#SVGID_00000046316620849856234620000016515047998299426697_);fill:#92FF1F;}
	.st10{clip-path:url(#SVGID_00000057850139366537950320000005209247783052513468_);}
	.st11{clip-path:url(#SVGID_00000057850139366537950320000005209247783052513468_);fill:#49C3FD;}
	.st12{clip-path:url(#SVGID_00000006665366386423379250000010186421083889759106_);}
	.st13{opacity:0.5;fill:#103A3F;}
	.st14{opacity:0.4;}
	.st15{fill:#103A3F;}
	.st16{clip-path:url(#SVGID_00000030485910086159364270000004007758200094397618_);}
	.st17{fill:#080D11;}
	.st18{fill:none;}
	.st19{fill:#2CBB69;}
	.st20{fill:#2C9356;}
	.st21{clip-path:url(#SVGID_00000176021503833509900370000004631368516917466294_);fill:#92FF1F;}
	.st22{fill:none;stroke:#414141;stroke-width:4;stroke-linecap:round;stroke-linejoin:round;stroke-miterlimit:10;}
	.st23{clip-path:url(#SVGID_00000108296039201239073560000004643681299466284191_);}
	.st24{clip-path:url(#SVGID_00000108296039201239073560000004643681299466284191_);fill:#49C3FD;}
	.st25{clip-path:url(#SVGID_00000118364534236342396980000015675217813349131158_);fill:#92FF1F;}
	.st26{clip-path:url(#SVGID_00000041261477556429895320000013828712098015373752_);}
	.st27{clip-path:url(#SVGID_00000041261477556429895320000013828712098015373752_);fill:#49C3FD;}
	.st28{clip-path:url(#SVGID_00000012458158754590186830000008616434681566056115_);}
	.st29{clip-path:url(#SVGID_00000012458158754590186830000008616434681566056115_);fill:#49C3FD;}
	.st30{clip-path:url(#SVGID_00000156551361299343977270000000028106153137917334_);}
	.st31{clip-path:url(#SVGID_00000156551361299343977270000000028106153137917334_);fill:#49C3FD;}
	.st32{clip-path:url(#SVGID_00000083785993626221307170000017126326159142890418_);fill:#92FF1F;}
	.st33{clip-path:url(#SVGID_00000181089224510933927020000012732879519723581111_);fill:#92FF1F;}
	.st34{clip-path:url(#SVGID_00000016783907144935893620000005211694201930684058_);}
	.st35{clip-path:url(#SVGID_00000016783907144935893620000005211694201930684058_);fill:#49C3FD;}
	.st36{clip-path:url(#SVGID_00000117634424460803972990000011571549694166919329_);fill:#92FF1F;}
	.st37{clip-path:url(#SVGID_00000167378650655272186320000001728991063224395455_);fill:#92FF1F;}
	.st38{clip-path:url(#SVGID_00000130632943413152946020000011629315281118878081_);}
	.st39{clip-path:url(#SVGID_00000130632943413152946020000011629315281118878081_);fill:#49C3FD;}
	.st40{clip-path:url(#SVGID_00000107552875195989214860000014108973278023010974_);}
	.st41{clip-path:url(#SVGID_00000107552875195989214860000014108973278023010974_);fill:#49C3FD;}
	.st42{clip-path:url(#SVGID_00000158751453587510442040000002122478823039832751_);}
	.st43{clip-path:url(#SVGID_00000158751453587510442040000002122478823039832751_);fill:#49C3FD;}
	.st44{clip-path:url(#SVGID_00000140731342225811757840000000875072833905764516_);}
	.st45{clip-path:url(#SVGID_00000140731342225811757840000000875072833905764516_);fill:#49C3FD;}
</style>
<g id="Layer_1">
</g>
<g id="Layer_2">
	<g>
		<g>
			<g>
				<g>
					<g>
						
							<ellipse transform="matrix(0.7774 -0.6291 0.6291 0.7774 34.7149 138.1492)" class="st0" cx="212.53" cy="20.03" rx="7.32" ry="6.28"/>
						<path class="st0" d="M215.85,29.53l-9.4,0.08c-0.78,0.01-1.49,0.63-1.6,1.39l-4.29,29.7c-0.11,0.76,0.43,1.37,1.21,1.36
							l9.4-0.08c0.78-0.01,1.49-0.63,1.6-1.39l4.29-29.7C217.16,30.13,216.62,29.52,215.85,29.53z"/>
					</g>
					<path class="st0" d="M251.35,59.27l-7.82-13.69l11.02-13.15c0.76-0.91,0.28-2.13-0.84-2.12l-11.25,0.1
						c-0.46,0-0.92,0.23-1.23,0.59l-3.6,4.24l-2.39-4.18c-0.21-0.36-0.6-0.58-1.06-0.57l-11.25,0.1c-1.12,0.01-1.96,1.25-1.46,2.14
						l7.24,12.98l-11.8,13.87c-0.77,0.91-0.29,2.14,0.83,2.13l11.61-0.1c0.46,0,0.92-0.23,1.24-0.6l3.99-4.77l2.63,4.71
						c0.21,0.37,0.6,0.59,1.07,0.58l11.61-0.1C251.02,61.42,251.86,60.17,251.35,59.27z"/>
					<path class="st0" d="M168.21,29.34l-0.95,6.55l-1.57,10.85l-2.07,14.3c-0.11,0.75,0.43,1.36,1.2,1.35l10.23-0.09
						c0.77-0.01,1.48-0.62,1.59-1.38l2.07-14.3l15.85-0.14c0.77-0.01,1.48-0.62,1.59-1.38l1.17-8.12c0.11-0.75-0.43-1.36-1.2-1.35
						l-15.85,0.14l0.95-6.55l17.18-0.15c0.77-0.01,1.48-0.62,1.59-1.38l1.17-8.12c0.11-0.75-0.43-1.36-1.2-1.35l-28.81,0.26
						c-0.77,0.01-1.48,0.62-1.59,1.38L168.21,29.34z"/>
				</g>
				<g>
					<path class="st0" d="M301.51,29.45l-2.32,16.09c-0.28,1.93-2.11,3.54-4.09,3.59h0c-1.62,0.04-2.76-1.22-2.53-2.8l2.41-16.72
						c0.1-0.68-0.39-1.21-1.08-1.2l-8.48,0.2c-0.69,0.02-1.33,0.58-1.43,1.25l-2.67,18.51c-0.73,5.03,1.58,7.09,1.58,7.09
						c4.99,5.85,14.25,1.04,14.25,1.04l0.51-0.42l-0.2,1.42c-0.15,1.02,0.58,1.82,1.62,1.79l7.22-0.17c1.04-0.02,2-0.87,2.15-1.88
						l4.05-28.04c0.1-0.68-0.39-1.21-1.08-1.2l-8.48,0.2C302.25,28.21,301.61,28.78,301.51,29.45z"/>
					<path class="st0" d="M278.59,38.12l1.05-7.29c0.1-0.68-0.39-1.21-1.08-1.2l-4.79,0.11l0.9-6.23c0.1-0.68-0.39-1.21-1.08-1.2
						l-8.48,0.2c-0.69,0.02-1.33,0.58-1.43,1.25l-0.9,6.23l-3.04,0.07c-0.69,0.02-1.33,0.58-1.43,1.25l-1.05,7.29
						c-0.1,0.68,0.39,1.21,1.08,1.2l3.04-0.07l-1.55,10.75l-0.8,5.52v0c-0.34,2.33,1.33,4.18,3.72,4.12l11.45-0.27
						c0.69-0.02,1.33-0.58,1.43-1.25l1.05-7.29c0.1-0.68-0.39-1.21-1.08-1.2l-4.79,0.11l1.55-10.75l4.79-0.11
						C277.85,39.36,278.49,38.8,278.59,38.12z"/>
					<path class="st0" d="M337.42,27.65c-3.42,0.08-6.71,1.54-9.24,3.81l0.47-3.25c0.1-0.68-0.39-1.21-1.08-1.2l-8.48,0.2
						c-0.69,0.02-1.33,0.58-1.43,1.25l-4.14,28.65c-0.1,0.68,0.39,1.21,1.08,1.2l8.48-0.2c0.69-0.02,1.33-0.58,1.43-1.25l2.54-17.61
						c2.53-2.28,5.81-3.74,9.24-3.82c0.79-0.02,1.55,0.04,2.28,0.16c0.75,0.13,1.55-0.47,1.66-1.24l0.76-5.27
						c0.08-0.56-0.24-1.05-0.78-1.17C339.33,27.72,338.39,27.63,337.42,27.65z"/>
					<path class="st0" d="M367.56,41.45l0.29-1.99c0.42-2.93,0.01-5.81-1.33-8.19c-1.55-2.73-4.49-5.41-10.04-5.28
						c-11.18,0.26-16.03,9.67-16.88,15.57c-0.57,3.92-2.03,15.22,12.71,14.88c4.62-0.11,7.81-1.32,10.32-2.55
						c0.51-0.25,0.87-0.73,0.94-1.24l0.76-5.29c0.14-0.95-0.73-1.59-1.7-1.25c-1.86,0.66-4.88,1.48-8.39,1.57
						c-4.55,0.11-4.46-3.02-4.19-4.43l15.9-0.37C366.73,42.84,367.45,42.21,367.56,41.45z M355.43,33.26
						c1.89-0.04,3.21,1.42,2.94,3.27l-6.85,0.16C351.79,34.84,353.54,33.31,355.43,33.26z"/>
				</g>
			</g>
			<g>
				<g>
					<path class="st0" d="M245.84,102.28l2.83-14.85c0.34-1.79,2.12-3.25,3.98-3.27h0c1.52-0.02,2.53,1.15,2.25,2.62l-2.94,15.43
						c-0.12,0.62,0.31,1.13,0.96,1.12l7.95-0.1c0.65-0.01,1.27-0.52,1.39-1.15L265.51,85c0.88-4.64-1.19-6.57-1.19-6.57
						c-4.43-5.46-13.3-1.11-13.3-1.11l-0.5,0.38l0.25-1.31c0.18-0.94-0.47-1.69-1.44-1.68l-6.77,0.08
						c-0.97,0.01-1.91,0.78-2.09,1.72l-4.93,25.88c-0.12,0.62,0.31,1.13,0.96,1.12l7.95-0.1
						C245.1,103.42,245.73,102.9,245.84,102.28z"/>
					<path class="st0" d="M156.83,103.57c-0.12,0.62,0.31,1.13,0.96,1.12l8.63-0.1c0.65-0.01,1.27-0.52,1.39-1.15l1.82-9.54
						l2.48,9.93c0.1,0.42,0.48,0.68,0.95,0.68l9.18-0.11l0.02,0c0.47-0.01,0.95-0.28,1.21-0.7l6.51-10.25l-1.86,9.75
						c-0.12,0.62,0.31,1.13,0.96,1.12l8.63-0.1c0.65-0.01,1.27-0.52,1.39-1.15l6.31-33.14c0.12-0.62-0.31-1.13-0.96-1.12l-9.03,0.11
						c-0.47,0.01-0.95,0.28-1.21,0.7l-14.5,23.07l-4.99-23.11c-0.09-0.43-0.47-0.71-0.96-0.71l-9.17,0.11
						c-0.65,0.01-1.27,0.52-1.39,1.15L156.83,103.57z"/>
					<path class="st0" d="M222.66,76.59c-8.22,0.2-16.14,6.94-17.69,15.07c-1.55,8.13,3.86,14.55,12.09,14.36
						c8.22-0.2,16.14-6.94,17.69-15.07C236.3,82.82,230.88,76.39,222.66,76.59z M218.92,96.25c-2.76,0.07-4.58-2.09-4.06-4.82
						c0.52-2.73,3.18-5,5.94-5.06s4.58,2.09,4.06,4.82C224.34,93.91,221.68,96.18,218.92,96.25z"/>
				</g>
				<g>
					<path class="st0" d="M268.07,103.58l9.65-0.11c0.73-0.01,1.41-0.59,1.54-1.29l0.98-5.67l4.04,6.68c0.19,0.32,0.55,0.5,0.97,0.5
						l10.84-0.12c1.09-0.01,1.92-1.23,1.4-2.06l-8.2-13.12l12.89-13.76c0.79-0.85,0.38-2.04-0.7-2.03l-10.52,0.12
						c-0.41,0-0.83,0.19-1.13,0.51l-6.8,7.11l2.68-15.51c0.12-0.7-0.37-1.27-1.1-1.26l-9.65,0.11c-0.73,0.01-1.41,0.59-1.54,1.29
						l-6.45,37.36C266.85,103.02,267.35,103.58,268.07,103.58z"/>
					<path class="st0" d="M314.36,103.44c4.98-0.23,8.41-1.58,11.1-2.93c0.54-0.27,0.92-0.78,0.99-1.33l0.76-5.55
						c0.14-0.99-0.76-1.64-1.77-1.28c-1.99,0.73-5.27,1.7-9.09,1.87c-4.91,0.22-4.84-3.04-4.56-4.52l17.16-0.78
						c0.82-0.04,1.57-0.71,1.68-1.51l0.29-2.08c0.42-3.05-0.04-6.03-1.5-8.47c-1.69-2.83-4.89-5.59-10.91-5.32
						c-12.04,0.55-17.16,10.49-18.01,16.68C299.94,92.33,298.49,104.17,314.36,103.44z M317.47,79.18c2.04-0.09,3.47,1.4,3.21,3.34
						l-7.38,0.34C313.56,80.91,315.43,79.27,317.47,79.18z"/>
					<path class="st0" d="M364.6,70.58l-8.41,0.22c-0.56,0.01-1.12,0.37-1.38,0.89l-5.02,16.29l-4.37-16.31
						c-0.11-0.49-0.54-0.81-1.08-0.81l-8.59,0.02c-0.91,0-1.71,0.88-1.55,1.71l6.13,25.88l0.01,0.04c0.43,1.83,0.13,3.74-0.83,5.3
						c-5.15,8.37-10.98,13.21-30.94,12.77c-16.33-0.36-27.34-3.51-38.99-6.84c-12.4-3.55-25.22-7.21-45.11-8.13
						c-44.16-2.02-65.21,7.35-71.89,11.2c-1.33,0.77-1.66,2.57-0.69,3.84l4.62,6.05c0.79,1.03,2.18,1.36,3.29,0.76
						c2.15-1.17,6.25-3.07,12.73-4.85c9.52-2.62,26.24-5.49,51.81-4.32c18.43,0.84,30.53,4.31,42.23,7.65
						c11.91,3.41,24.23,6.93,42.17,7.33c27.65,0.61,36.6-7.31,43.75-22.1c5-9.37,9.3-20.97,13.08-34.91
						C365.82,71.34,365.52,70.56,364.6,70.58z"/>
				</g>
			</g>
		</g>
		<g>
			<g>
				<g>
					<path class="st2" d="M8.38,50.42c-9.21,7.3-7.69,24.1-0.39,33.2s25.48,21.62,34.83,12.07c8.72-8.91,2.39-31.66-6.28-40.78
						C28.5,46.46,18.28,42.58,8.38,50.42z"/>
					<path class="st3" d="M34.82,82.63c-0.36-0.1-0.67-0.33-0.86-0.68c-8.03-15.02-19.37-21.18-19.49-21.24
						c-0.66-0.35-0.92-1.16-0.59-1.82c0.33-0.67,1.13-0.95,1.8-0.64c17.39,7.95,20.7,22.16,20.83,22.76
						c0.15,0.67-0.22,1.35-0.87,1.59C35.38,82.7,35.09,82.71,34.82,82.63z"/>
				</g>
				<g>
					<path class="st3" d="M68.35,133.82c25.59,2.74,64.2-10.84,77.99-48.46c10.08-27.5,4.34-58.85-22.7-74.41
						c-9.15-5.27-19.6-7.82-30.17-7.88C72.81,2.93,33.96,13.09,27.38,58.5C17.53,126.51,68.35,133.82,68.35,133.82z"/>
					<g>
						<defs>
							<path id="SVGID_00000039853543334599265410000002949173006369586824_" d="M68.35,133.82c25.59,2.74,64.2-10.84,77.99-48.46
								c10.08-27.5,4.34-58.85-22.7-74.41c-9.15-5.27-19.6-7.82-30.17-7.88C72.81,2.93,33.96,13.09,27.38,58.5
								C17.53,126.51,68.35,133.82,68.35,133.82z"/>
						</defs>
						<clipPath id="SVGID_00000078011839549423447590000001641182238599378102_">
							<use xlink:href="#SVGID_00000039853543334599265410000002949173006369586824_"  style="overflow:visible;"/>
						</clipPath>
						<g style="clip-path:url(#SVGID_00000078011839549423447590000001641182238599378102_);">
							<path class="st5" d="M28.32,62.65C34.9,17.24,73.75,7.08,94.42,7.22c10.56,0.07,21.01,2.61,30.17,7.88
								c13.54,7.8,21.74,19.56,25.29,32.81c-2.86-14.93-11.28-28.35-26.22-36.96c-9.15-5.27-19.6-7.82-30.17-7.88
								C72.81,2.93,33.96,13.09,27.38,58.5c-2.17,14.95-1.4,26.96,1.11,36.61C26.77,86.22,26.45,75.52,28.32,62.65z"/>
						</g>
						<path style="clip-path:url(#SVGID_00000078011839549423447590000001641182238599378102_);fill:#49C3FD;" d="M130.12,65.41
							c0,0-3.2,12.79,4.64,20.64c0,0-15.17,43.17-52,48.02l59.46,11.89l18.73-73.34L130.12,65.41z"/>
					</g>
				</g>
				<g>
					<path class="st2" d="M175.62,56.84c3.84,9.85-1.86,21.28-12.73,25.52c-10.87,4.24-29.32,3.9-32.65-9.04
						c-3.11-12.08,7.87-22.41,18.74-26.65C159.85,42.44,171.78,46.99,175.62,56.84z"/>
					<path class="st3" d="M137.39,73.49c-0.23-0.06-0.45-0.19-0.63-0.37c-0.48-0.49-0.52-1.25-0.11-1.79
						c0.4-0.53,10-12.96,27.81-13.3c0.68-0.01,1.26,0.47,1.38,1.13c0.12,0.67-0.26,1.32-0.9,1.54c-0.08,0.03-8.05,2.82-12.87,4.55
						c-4.64,1.66-13.43,7.96-13.52,8.03C138.2,73.53,137.77,73.59,137.39,73.49z"/>
					<path class="st3" d="M143.72,68.83c-0.32-0.09-0.61-0.29-0.8-0.58c-0.33-0.51-0.29-1.19,0.11-1.65
						c0.13-0.15,1.34-1.48,3.7-1.62c2.64-0.15,5.58,1.25,8.73,4.16c0.51,0.47,0.59,1.26,0.18,1.82c-0.41,0.56-1.18,0.73-1.79,0.39
						c-1.73-0.98-6.78-3.33-9.38-2.54C144.23,68.9,143.96,68.9,143.72,68.83z"/>
				</g>
				<path class="st4" d="M2,66.39c0,0,6.1,19.86,25.07,21.77c0,0,4.2,33.54,35.35,44.07c0,0-16.09-2.64-26.34-15.65
					c-6.85-8.69-8.9-15.53-9.52-19.12C26.56,97.46,2.07,88.01,2,66.39z"/>
				<g>
					<path class="st2" d="M110.04,65.32c-3.37-12.55-15.78-20.12-27.73-16.92c-6.9,1.85-12.13,6.9-14.67,13.24
						c-3.94-4.77-10.24-7.11-16.36-5.46c-8.51,2.28-13.07,11.28-11.06,20.31c1.51,6.79,5.96,11.68,11.19,13.71
						c-0.49,1.09-0.9,2.23-1.22,3.42c-3.22,12.03,3.92,24.39,15.95,27.6c12.03,3.22,24.39-3.92,27.6-15.95
						c1.02-3.82,1-7.68,0.1-11.27c0.22-0.05,0.44-0.1,0.66-0.16C106.46,90.64,113.41,77.87,110.04,65.32z"/>
					<g>
						<path class="st8" d="M99.36,59.04l-17.39,9.89c-1.24,0.7-1.75,2.24-1.15,3.53c1.76,3.76,5.33,6.64,9.91,7.27
							c5.68,0.78,11.3-2.45,13.48-7.76c1.74-4.22,1.08-8.67-1.2-12.06C102.22,58.7,100.62,58.32,99.36,59.04z"/>
						<path class="st8" d="M65.94,75.4L52.73,66c-0.94-0.67-2.25-0.52-2.99,0.36c-2.16,2.58-3.06,6.18-1.96,9.77
							c1.37,4.44,5.66,7.47,10.31,7.26c3.69-0.16,6.74-2.17,8.46-5C67.16,77.39,66.89,76.09,65.94,75.4z"/>
						
							<ellipse transform="matrix(0.2584 -0.966 0.966 0.2584 -31.289 134.3829)" class="st8" cx="71.88" cy="87.57" rx="2.4" ry="1.81"/>
						
							<ellipse transform="matrix(0.7068 -0.7074 0.7074 0.7068 -44.3988 69.5504)" class="st8" cx="61.71" cy="88.34" rx="1.81" ry="2.4"/>
						<path class="st8" d="M76.64,66.77c0,0-0.76-0.98,1.38-2.88c1.88-1.66,6.57-5.18,8.35-6.32c0.63-0.4,1.36-0.65,2.11-0.64
							c0.81,0.01,1.77,0.27,2.38,1.26c1.22,1.99-4.55,5.19-4.55,5.19l-6.39,3.73c-0.59,0.34-1.27,0.52-1.94,0.45
							C77.46,67.51,76.92,67.31,76.64,66.77z"/>
						<path class="st8" d="M65.73,71.7c0.75,0.36,1.48-0.52,0.98-1.19c-0.59-0.78-1.43-1.79-2.63-3.01
							c-3.23-3.3-4.97-4.23-5.91-3.26c-0.94,0.97,2.2,4.4,3.76,5.35C62.92,70.19,64.35,71.05,65.73,71.7z"/>
						<path class="st8" d="M67.24,109.97l10.78-2.29c0.64-0.14,1.28,0.26,1.45,0.9h0c0.17,0.67-0.25,1.36-0.93,1.5l-10.78,2.32
							c-0.66,0.14-1.31-0.28-1.46-0.94l-0.01-0.04C66.15,110.77,66.58,110.11,67.24,109.97z"/>
					</g>
					<g>
						<path class="st3" d="M58.91,108.08c-0.51-0.84-0.25-1.94,0.58-2.47l14.14-9.19c1.08-0.68,2.41-0.84,3.61-0.43l7.64,2.52
							c2.58,0.88,2.45,4.57-0.18,5.26l-23.82,5.12C60.11,109.09,59.32,108.75,58.91,108.08L58.91,108.08z"/>
						<path class="st3" d="M97.38,60.03L80,69.92c-1.24,0.7-1.75,2.24-1.15,3.53c1.76,3.76,5.33,6.64,9.91,7.27
							c5.68,0.78,11.3-2.45,13.48-7.76c1.74-4.22,1.08-8.67-1.2-12.06C100.23,59.7,98.64,59.31,97.38,60.03z"/>
						<path class="st3" d="M64.83,74.53l-13.21-9.4c-0.94-0.67-2.25-0.52-2.99,0.36c-2.16,2.58-3.06,6.18-1.96,9.77
							c1.37,4.44,5.66,7.47,10.31,7.26c3.69-0.16,6.74-2.17,8.46-5C66.05,76.51,65.78,75.21,64.83,74.53z"/>
						
							<ellipse transform="matrix(0.2584 -0.966 0.966 0.2584 -31.5045 133.8635)" class="st3" cx="71.44" cy="87.45" rx="2.4" ry="1.81"/>
						
							<ellipse transform="matrix(0.7068 -0.7074 0.7074 0.7068 -44.6506 69.115)" class="st3" cx="61.06" cy="88.43" rx="1.81" ry="2.4"/>
					</g>
				</g>
			</g>
		</g>
	</g>
</g>
</svg>
